0
SECTION
2
HEADER
9
$INSUNITS
70
4
9
$ACADVER
1
AC1014
9
$HANDSEED
5
FFFF
0
ENDSEC
0
SECTION
2
TABLES
0
TABLE
2
VPORT
5
8
100
AcDbSymbolTable
0
ENDTAB
0
TABLE
2
LTYPE
5
5
100
AcDbSymbolTable
0
LTYPE
5
14
100
AcDbSymbolTableRecord
100
AcDbLinetypeTableRecord
2
BYBLOCK
70
0
0
LTYPE
5
15
100
AcDbSymbolTableRecord
100
AcDbLinetypeTableRecord
2
BYLAYER
70
0
0
ENDTAB
0
TABLE
2
LAYER
5
2
100
AcDbSymbolTable
70
2
0
LAYER
5
50
100
AcDbSymbolTableRecord
100
AcDbLayerTableRecord
2
0
70
0
6
CONTINUOUS
0
ENDTAB
0
TABLE
2
STYLE
5
3
100
AcDbSymbolTable
70
1
0
STYLE
5
11
100
AcDbSymbolTableRecord
100
AcDbTextStyleTableRecord
2
STANDARD
70
0
0
ENDTAB
0
TABLE
2
VIEW
5
6
100
AcDbSymbolTable
70
0
0
ENDTAB
0
TABLE
2
UCS
5
7
100
AcDbSymbolTable
70
0
0
ENDTAB
0
TABLE
2
APPID
5
9
100
AcDbSymbolTable
70
2
0
APPID
5
12
100
AcDbSymbolTableRecord
100
AcDbRegAppTableRecord
2
ACAD
70
0
0
ENDTAB
0
TABLE
2
DIMSTYLE
5
A
100
AcDbSymbolTable
70
1
0
ENDTAB
0
TABLE
2
BLOCK_RECORD
5
1
100
AcDbSymbolTable
70
1
0
BLOCK_RECORD
5
1F
100
AcDbSymbolTableRecord
100
AcDbBlockTableRecord
2
*MODEL_SPACE
0
BLOCK_RECORD
5
1B
100
AcDbSymbolTableRecord
100
AcDbBlockTableRecord
2
*PAPER_SPACE
0
ENDTAB
0
ENDSEC
0
SECTION
2
BLOCKS
0
BLOCK
5
20
100
AcDbEntity
100
AcDbBlockBegin
2
*MODEL_SPACE
0
ENDBLK
5
21
100
AcDbEntity
100
AcDbBlockEnd
0
BLOCK
5
1C
100
AcDbEntity
100
AcDbBlockBegin
2
*PAPER_SPACE
0
ENDBLK
5
1D
100
AcDbEntity
100
AcDbBlockEnd
0
ENDSEC
0
SECTION
2
ENTITIES
0
LWPOLYLINE
5
100
100
AcDbEntity
8
0
100
AcDbPolyline
90
17
70
1
43
0.0
10
-64.599162138104788
20
-35.263951221187931
42
0.31988818758883542
10
-62.501127414304413
20
-32.484600722232102
42
-0.40620956300265992
10
-58.502629332008887
20
-28.594204946051388
10
58.502642162689654
20
-28.594204946051388
42
-0.40619010399398481
10
62.501132913167595
20
-32.48433357424657
42
0.32001291700492962
10
64.600648548275302
20
-35.263951221187931
10
65.500000976026072
20
-35.263951221187931
10
65.500000976026072
20
-45.263951221187938
10
61.000000804662704
20
-45.263951221187931
42
-0.41421356237309764
10
58.000000804662697
20
-42.263951221187938
10
58.000000804662697
20
-41.602005060337333
10
-58.000000804662719
20
-41.602005060337333
10
-58.000000804662704
20
-42.263951221187938
42
-0.4142135623730942
10
-61.000000804662697
20
-45.263951221187931
10
-63.499626094808157
20
-45.263951221187931
42
-0.4142135623730937
10
-65.499626094808164
20
-43.263951221187931
10
-65.499626094808164
20
-35.263951221187931
0
LWPOLYLINE
5
101
100
AcDbEntity
8
0
100
AcDbPolyline
90
16
70
1
43
0.0
10
-57.871486598750337
20
-17.981634135800714
42
0.093476063677238833
10
-56.000000976026058
20
-18.33459645946667
10
56.000000976026058
20
-18.334596459466667
42
0.14510592400847383
10
58.800260676413643
20
-17.504448547269273
10
62.428498147486138
20
-17.489609113786869
10
62.428498147486138
20
15.510390886213132
10
69.428498147486152
20
15.510390886213132
10
69.428498147486152
20
-67.323609113786873
10
58.000000000000014
20
-78.685610119615262
10
35
20
-78.685610119615262
42
-0.99999999999999989
10
-35
20
-78.685610119615262
10
-58.000000000000007
20
-78.685610119615262
10
-69.362001005828375
20
-67.323609113786887
10
-69.362001005828375
20
15
10
-62.362001005828361
20
15
10
-62.362001005828382
20
-18.000000268220901
0
CIRCLE
5
102
100
AcDbEntity
8
0
100
AcDbCircle
10
0
20
-55.687192646532949
30
0
40
2.9999999999999982
210
0
220
0
230
1
0
CIRCLE
5
103
100
AcDbEntity
8
0
100
AcDbCircle
10
-20.078550954714306
20
-90.277966918257164
30
0
40
3.0000000000000071
210
0
220
0
230
1
0
CIRCLE
5
104
100
AcDbEntity
8
0
100
AcDbCircle
10
20.078550954714316
20
-90.277966918257164
30
0
40
3.0000000000000071
210
0
220
0
230
1
0
ENDSEC
0
SECTION
2
OBJECTS
0
DICTIONARY
5
C
100
AcDbDictionary
3
ACAD_GROUP
350
D
3
ACAD_MLINESTYLE
350
17
0
DICTIONARY
5
D
100
AcDbDictionary
0
DICTIONARY
5
1A
330
C
100
AcDbDictionary
0
DICTIONARY
5
17
100
AcDbDictionary
0
ENDSEC
0
EOF
